<?xml version="1.0" encoding="UTF-8" standalone="no"?>
<!-- Created with Inkscape (http://www.inkscape.org/) -->

<svg
   width="16"
   height="16"
   id="svg2"
   version="1.1"
   inkscape:version="1.4.2 (f4327f4, 2025-05-13)"
   sodipodi:docname="object.svg"
   inkscape:export-filename="C:\Users\jmietling\Documents\rect3997-9-1.png"
   inkscape:export-xdpi="90"
   inkscape:export-ydpi="90"
   xml:space="preserve"
   xmlns:inkscape="http://www.inkscape.org/namespaces/inkscape"
   xmlns:sodipodi="http://sodipodi.sourceforge.net/DTD/sodipodi-0.dtd"
   xmlns="http://www.w3.org/2000/svg"
   xmlns:svg="http://www.w3.org/2000/svg"
   xmlns:rdf="http://www.w3.org/1999/02/22-rdf-syntax-ns#"
   xmlns:cc="http://creativecommons.org/ns#"
   xmlns:dc="http://purl.org/dc/elements/1.1/"><defs
     id="defs4" /><sodipodi:namedview
     id="base"
     pagecolor="#ffffff"
     bordercolor="#666666"
     borderopacity="1.0"
     inkscape:pageopacity="0.0"
     inkscape:pageshadow="2"
     inkscape:zoom="31.999999"
     inkscape:cx="-0.87500003"
     inkscape:cy="5.8437502"
     inkscape:document-units="px"
     inkscape:current-layer="layer1"
     showgrid="true"
     inkscape:window-width="1278"
     inkscape:window-height="1360"
     inkscape:window-x="2553"
     inkscape:window-y="0"
     inkscape:window-maximized="0"
     showguides="true"
     inkscape:guide-bbox="true"
     inkscape:snap-global="false"
     inkscape:showpageshadow="0"
     inkscape:pagecheckerboard="0"
     inkscape:deskcolor="#505050"><inkscape:grid
       type="xygrid"
       id="grid3999"
       empspacing="5"
       visible="true"
       enabled="true"
       snapvisiblegridlinesonly="true"
       originx="0"
       originy="0"
       spacingy="1"
       spacingx="1"
       units="px" /></sodipodi:namedview><metadata
     id="metadata7"><rdf:RDF><cc:Work
         rdf:about=""><dc:format>image/svg+xml</dc:format><dc:type
           rdf:resource="http://purl.org/dc/dcmitype/StillImage" /></cc:Work></rdf:RDF></metadata><g
     inkscape:label="Layer 1"
     inkscape:groupmode="layer"
     id="layer1"
     style="display:inline"
     transform="translate(0,-1036.3622)"><path
       style="font-weight:bold;font-size:13.3333px;line-height:1.25;-inkscape-font-specification:'sans-serif Bold';letter-spacing:0px;word-spacing:0px;fill:#246196;stroke-width:1px"
       d="m 5.6680275,1064.2292 q -1.1333305,0 -1.7599956,-0.1866 -0.6133318,-0.1867 -0.8533311,-0.5867 -0.2399994,-0.4 -0.2399994,-1.04 v -2.0533 q 0,-0.6267 -0.4266656,-0.8934 -0.4266656,-0.2666 -1.2399969,-0.2666 v -1.56 q 0.8133313,0 1.2399969,-0.2667 0.4266656,-0.2667 0.4266656,-0.8933 v -2.0667 q 0,-0.64 0.2399994,-1.04 0.2399993,-0.4 0.8533311,-0.5867 0.6266651,-0.1866 1.7599956,-0.1866 v 1.4666 q -0.5199987,0.013 -0.8266646,0.1867 -0.3066659,0.1733 -0.3066659,0.7333 v 1.9467 q 0,1.2133 -1.5199961,1.44 v 0.08 q 1.5199961,0.2267 1.5199961,1.44 v 1.9467 q 0,0.56 0.3066659,0.7333 0.3066659,0.1733 0.8266646,0.1867 z m 4.5333125,-1.4666 q 0.519999,-0.013 0.826665,-0.1867 0.306666,-0.1733 0.306666,-0.7333 v -1.9467 q 0,-1.2133 1.519996,-1.44 v -0.08 q -1.519996,-0.2267 -1.519996,-1.44 v -1.9467 q 0,-0.56 -0.306666,-0.7333 -0.306666,-0.1733 -0.826665,-0.1867 v -1.4666 q 1.146664,0 1.759996,0.1866 0.613332,0.1867 0.853331,0.5867 0.239999,0.4 0.239999,1.04 v 2.0667 q 0,0.6266 0.426666,0.8933 0.426665,0.2667 1.239997,0.2667 v 1.56 q -0.813332,0 -1.239997,0.2666 -0.426666,0.2667 -0.426666,0.8934 v 2.0533 q 0,0.64 -0.239999,1.04 -0.239999,0.4 -0.853331,0.5867 -0.613332,0.1866 -1.759996,0.1866 z"
       id="text4137"
       transform="scale(1.0132263,0.98694635)"
       aria-label="{ }" /></g></svg>
